HIERARCHY
ROOT SpineBase
{
  OFFSET 0.000000 0.000000 0.000000
  CHANNELS 6 Xposition Yposition Zposition Zrotation Xrotation Yrotation
  JOINT SpineMid
  {
    OFFSET 0.000000 26.114716 0.000000
    CHANNELS 3 Zrotation Xrotation Yrotation
    JOINT SpineShoulder
    {
      OFFSET 0.077572 19.433372 -0.535963
      CHANNELS 3 Zrotation Xrotation Yrotation
      JOINT Neck
      {
        OFFSET 0.070154 6.415926 -0.441600
        CHANNELS 3 Zrotation Xrotation Yrotation
        JOINT Head
        {
          OFFSET -3.726550 13.001284 -1.529027
          CHANNELS 3 Zrotation Xrotation Yrotation
          End Site
          {
            OFFSET 0 0 0
          }
        }
      }
      JOINT ShoulderLeft
      {
        OFFSET -14.466834 -4.448410 5.606726
        CHANNELS 3 Zrotation Xrotation Yrotation
        JOINT ElbowLeft
        {
          OFFSET -1.923805 -23.646322 -0.975163
          CHANNELS 3 Zrotation Xrotation Yrotation
          JOINT WristLeft
          {
            OFFSET 0.101822 -21.125415 -4.053834
            CHANNELS 3 Zrotation Xrotation Yrotation
            JOINT HandLeft
            {
              OFFSET 1.578318 -7.130095 -1.472599
              CHANNELS 3 Zrotation Xrotation Yrotation
              JOINT HandTipLeft
              {
                OFFSET 0.935564 -5.441923 -0.557462
                CHANNELS 3 Zrotation Xrotation Yrotation
                End Site
                {
                  OFFSET 0 0 0
                }
              }
              JOINT ThumbLeft
              {
                OFFSET 3.833163 1.869028 -2.695778
                CHANNELS 3 Zrotation Xrotation Yrotation
                End Site
                {
                  OFFSET 0 0 0
                }
              }
            }
          }
        }
      }
      JOINT ShoulderRight
      {
        OFFSET 13.775281 -3.554415 -7.437431
        CHANNELS 3 Zrotation Xrotation Yrotation
        JOINT ElbowRight
        {
          OFFSET 6.860079 -22.463361 -0.191756
          CHANNELS 3 Zrotation Xrotation Yrotation
          JOINT WristRight
          {
            OFFSET -1.674863 -19.360266 -3.346611
            CHANNELS 3 Zrotation Xrotation Yrotation
            JOINT HandRight
            {
              OFFSET -2.448549 -5.442115 -1.053156
              CHANNELS 3 Zrotation Xrotation Yrotation
              JOINT HandTipRight
              {
                OFFSET -0.156214 -6.268860 -2.389887
                CHANNELS 3 Zrotation Xrotation Yrotation
                End Site
                {
                  OFFSET 0 0 0
                }
              }
              JOINT ThumbRight
              {
                OFFSET 2.017245 -1.119921 -1.481137
                CHANNELS 3 Zrotation Xrotation Yrotation
                End Site
                {
                  OFFSET 0 0 0
                }
              }
            }
          }
        }
      }
    }
  }
  JOINT HipLeft
  {
    OFFSET -5.887447 0.482623 -0.374870
    CHANNELS 3 Zrotation Xrotation Yrotation
    JOINT KneeLeft
    {
      OFFSET -3.739256 -26.403915 3.322565
      CHANNELS 3 Zrotation Xrotation Yrotation
      JOINT AnkleLeft
      {
        OFFSET -19.182076 -21.050744 2.162548
        CHANNELS 3 Zrotation Xrotation Yrotation
        JOINT FootLeft
        {
          OFFSET 9.226983 9.086435 -4.519082
          CHANNELS 3 Zrotation Xrotation Yrotation
          End Site
          {
            OFFSET 0 0 0
          }
        }
      }
    }
  }
  JOINT HipRight
  {
    OFFSET 6.664548 0.235256 -5.578879
    CHANNELS 3 Zrotation Xrotation Yrotation
    JOINT KneeRight
    {
      OFFSET 6.790862 -29.741609 0.655490
      CHANNELS 3 Zrotation Xrotation Yrotation
      JOINT AnkleRight
      {
        OFFSET 5.553193 -37.995728 1.275869
        CHANNELS 3 Zrotation Xrotation Yrotation
        JOINT FootRight
        {
          OFFSET -1.104838 -7.410375 -6.368279
          CHANNELS 3 Zrotation Xrotation Yrotation
          End Site
          {
            OFFSET 0 0 0
          }
        }
      }
    }
  }
}
MOTION
Frames: 9
Frame Time: 0.033333
-59.440167 76.881348 444.531071 -1.592856 -1.121055 19.310987 -0.259110 -0.403662 -19.373517 0.031976 -0.195188 -0.058113 -3.640463 -2.647284 -1.882856 0.000000 0.000000 0.000000 -0.261507 -3.826718 0.572108 3.942160 3.824889 -1.180483 -6.022556 5.974330 2.463543 9.949047 -3.317229 -1.619486 0.000000 0.000000 0.000000 0.000000 0.000000 0.000000 -2.783708 0.269126 -0.278317 4.022969 4.155981 0.232749 1.973909 -4.615947 0.870903 -6.707016 -1.226816 1.521397 0.000000 0.000000 0.000000 0.000000 0.000000 0.000000 11.414425 -3.614950 -17.643203 -53.881131 4.842769 -4.916826 7.953120 -7.520891 -6.156560 0.000000 0.000000 0.000000 0.588720 0.392639 -19.477874 0.495699 -1.164847 -0.130692 4.281299 5.071697 -3.486098 0.000000 0.000000 0.000000
-59.321098 76.874115 444.327243 -1.635645 -1.227878 18.594764 -0.294407 -0.435679 -18.661168 0.013897 -0.215316 -0.061295 -3.643958 -2.222135 -1.792238 0.000000 0.000000 0.000000 -0.375710 -4.059506 0.608718 4.145687 4.353278 -1.251460 -5.213562 5.972362 2.260997 10.415782 -3.451339 -1.540351 0.000000 0.000000 0.000000 0.000000 0.000000 0.000000 -3.158915 0.288201 -0.303501 4.284507 4.601840 0.283850 1.530952 -4.281199 0.663429 -7.275940 -2.601056 2.051314 0.000000 0.000000 0.000000 0.000000 0.000000 0.000000 10.619384 -3.894735 -16.923488 -49.955132 5.701437 -4.518516 6.868779 -7.927289 -5.378136 0.000000 0.000000 0.000000 0.478689 0.606941 -18.752097 0.764429 -1.365632 -0.159433 3.898022 5.100802 -3.166830 0.000000 0.000000 0.000000
-59.233310 76.879242 444.149936 -1.647087 -1.286944 18.087483 -0.309101 -0.478459 -18.155628 0.024487 -0.199087 -0.060650 -3.245384 -1.175756 -1.418511 0.000000 0.000000 0.000000 -0.499222 -4.306453 0.633802 3.835113 4.751329 -1.180677 -3.472581 6.401638 1.923351 8.801423 -4.210651 -1.396604 0.000000 0.000000 0.000000 0.000000 0.000000 0.000000 -2.588444 0.673934 -0.210698 3.386772 3.636221 0.339343 1.415721 -3.842879 0.701590 -6.710965 -0.975015 1.876927 0.000000 0.000000 0.000000 0.000000 0.000000 0.000000 11.180131 -4.265759 -16.248352 -53.081447 6.461769 -4.471006 5.474537 -8.590954 -6.518673 0.000000 0.000000 0.000000 0.408860 0.928468 -18.193653 1.076837 -1.808163 -0.233294 3.307070 5.268986 -2.737085 0.000000 0.000000 0.000000
-59.162893 76.882593 443.967303 -1.839074 -1.409057 17.749667 -0.734833 -0.805302 -17.841394 0.306933 0.074834 -0.062585 -1.353660 1.286978 -0.518248 0.000000 0.000000 0.000000 -0.386076 -4.173330 0.660506 3.424047 4.687984 -1.059691 -2.715693 7.053865 1.859622 8.222421 -4.778811 -1.406995 0.000000 0.000000 0.000000 0.000000 0.000000 0.000000 -1.900442 1.511495 -0.015180 2.653629 1.746438 0.346391 0.576541 -1.931078 0.437435 -3.376750 -4.879769 0.974634 0.000000 0.000000 0.000000 0.000000 0.000000 0.000000 10.411258 -4.451058 -15.967949 -47.014488 6.512324 -4.000414 4.253304 -8.661236 -5.285050 0.000000 0.000000 0.000000 0.546712 0.968868 -17.871100 1.208889 -1.848431 -0.231936 2.695540 5.592429 -2.271021 0.000000 0.000000 0.000000
-59.156259 76.875636 443.823922 -1.745451 -1.262943 18.040868 -0.381440 -0.601387 -18.115852 0.253563 0.102598 -0.052093 -0.187175 3.772383 0.494597 0.000000 0.000000 0.000000 -0.880047 -4.717739 0.644470 3.028523 4.951221 -0.917996 -3.052392 6.809526 1.978904 6.780684 -6.746879 -1.794063 0.000000 0.000000 0.000000 0.000000 0.000000 0.000000 -0.849832 1.751877 0.138472 0.942832 0.153157 0.275824 -0.381089 -1.926039 0.913472 -2.460250 -8.030436 0.432926 0.000000 0.000000 0.000000 0.000000 0.000000 0.000000 9.693733 -4.876292 -16.233694 -45.611329 7.648960 -4.119788 3.229367 -8.869010 -5.390049 0.000000 0.000000 0.000000 0.259004 0.133060 -18.335469 1.055298 -0.795064 -0.024953 2.150967 6.397424 -1.899794 0.000000 0.000000 0.000000
-59.164218 76.893162 443.642068 -1.411143 -0.903624 19.122698 0.422745 -0.203340 -19.159647 -0.118598 -0.191618 -0.039153 0.582522 7.071305 1.739657 0.000000 0.000000 0.000000 -1.665023 -5.445644 0.597603 2.469198 5.725283 -0.714898 -5.086883 5.526822 2.401165 6.907573 -3.226000 -1.690981 0.000000 0.000000 0.000000 0.000000 0.000000 0.000000 0.339281 1.755004 0.259820 -0.808142 -1.075043 0.094465 -0.402874 -2.443592 1.335476 -2.815364 -7.317082 0.127034 0.000000 0.000000 0.000000 0.000000 0.000000 0.000000 7.812147 -4.861698 -17.519271 -33.096311 5.875710 -3.379206 0.688440 -6.397976 -4.091028 0.000000 0.000000 0.000000 0.005761 -0.522740 -19.487929 0.561164 -0.580866 0.024217 1.859948 6.940632 -1.512679 0.000000 0.000000 0.000000
-59.226421 77.059105 443.510866 -1.046774 -0.471997 21.723276 1.147124 0.050984 -21.728098 -0.000000 0.000000 0.000000 0.772719 10.054999 2.936444 0.000000 0.000000 0.000000 -2.985998 -6.546955 0.485682 0.810025 6.314826 -0.151292 -5.187930 3.700528 2.143904 6.481052 -1.006564 -1.560011 0.000000 0.000000 0.000000 0.000000 0.000000 0.000000 0.329969 0.797991 0.238363 -1.464370 -1.938293 0.024083 0.436274 -3.100209 1.732733 -2.267231 -7.711420 -0.805094 0.000000 0.000000 0.000000 0.000000 0.000000 0.000000 7.013787 -4.460476 -20.310112 -22.182867 2.848201 -2.178125 -0.458417 -3.627554 -2.688034 0.000000 0.000000 0.000000 -0.517480 -1.461405 -22.232647 0.233274 -0.005041 0.158026 1.360727 7.359910 -1.039065 0.000000 0.000000 0.000000
-59.207407 77.114551 443.272940 -0.284190 0.567916 22.866353 2.305487 0.746451 -22.832753 -0.850873 -0.296992 -0.020441 2.165817 13.724203 4.530413 0.000000 0.000000 0.000000 -3.955578 -8.240477 0.328012 -1.610741 7.178912 0.684713 -5.577254 0.099368 1.411881 7.378832 4.898417 -0.811667 0.000000 0.000000 0.000000 0.000000 0.000000 0.000000 1.681370 0.258505 0.614900 -3.754267 -3.233296 -0.395872 3.590705 -4.674585 1.943561 -4.570089 -5.971733 -0.977468 0.000000 0.000000 0.000000 0.000000 0.000000 0.000000 4.932692 -4.943320 -21.547945 -10.308239 -0.261836 0.920408 -1.566908 -0.422359 -1.600492 0.000000 0.000000 0.000000 -1.779272 -2.748266 -23.544511 0.052875 0.560240 0.295387 0.972271 7.587877 -0.663877 0.000000 0.000000 0.000000
-59.171612 77.518836 443.163997 2.202718 3.217976 23.259780 3.251690 1.362272 -23.234843 -0.883743 -0.015883 0.047807 1.349833 15.808760 6.060096 0.000000 0.000000 0.000000 -7.328315 -11.871406 -0.283125 -4.371740 8.013591 1.648497 -5.379582 -1.545280 1.042744 6.128248 8.270947 -0.010336 0.000000 0.000000 0.000000 0.000000 0.000000 0.000000 3.398556 1.883975 2.085983 -8.293032 -8.275772 -2.605194 7.401607 -4.611615 1.257345 -8.878956 -8.355061 0.215740 0.000000 0.000000 0.000000 0.000000 0.000000 0.000000 1.604738 -6.508785 -21.919325 4.880649 -3.480879 5.930228 -6.588234 6.027769 -4.235093 0.000000 0.000000 0.000000 -5.070883 -4.284852 -24.119518 -0.158252 0.415722 0.278537 0.890213 7.487876 -0.420020 0.000000 0.000000 0.000000
